<?xml version="1.0" standalone="no"?>
<!DOCTYPE svg PUBLIC "-//W3C//DTD SVG 20010904//EN"
 "http://www.w3.org/TR/2001/REC-SVG-20010904/DTD/svg10.dtd">
<svg version="1.0" xmlns="http://www.w3.org/2000/svg"
 width="268.000000pt" height="268.000000pt" viewBox="0 0 268.000000 268.000000"
 preserveAspectRatio="xMidYMid meet">
<metadata>
Created by potrace 1.11, written by Peter Selinger 2001-2013
</metadata>
<g transform="translate(0.000000,268.000000) scale(0.100000,-0.100000)"
fill="#000000" stroke="none">
<path d="M0 1340 l0 -1340 1340 0 1340 0 0 1340 0 1340 -1340 0 -1340 0 0
-1340z m2094 437 l499 -492 -7 -48 -7 -48 -540 533 c-482 475 -538 534 -517
539 64 19 51 30 572 -484z m96 110 c206 -205 378 -377 382 -383 4 -5 10 -35
14 -65 l7 -54 -169 162 c-93 89 -295 288 -449 443 l-280 282 60 -7 60 -7 375
-371z m-1795 133 l230 -230 -55 0 -55 0 -212 212 c-117 117 -213 221 -213 230
0 14 8 18 38 18 35 0 49 -12 267 -230z m153 57 l173 -173 -3 -52 -3 -52 -225
225 -226 225 56 0 55 0 173 -173z m100 100 l73 -74 -3 -52 -3 -51 -125 125
-125 125 55 0 56 0 72 -73z m72 53 c0 -11 -2 -20 -3 -20 -2 0 -12 9 -22 20
-18 19 -17 20 3 20 15 0 22 -6 22 -20z m844 -134 l149 -143 -23 -31 -23 -31
-164 156 c-89 85 -163 159 -163 163 0 8 46 28 65 29 6 0 77 -64 159 -143z
m551 54 c28 -16 115 -95 197 -177 135 -137 151 -156 189 -237 22 -48 39 -89
37 -91 -2 -3 -134 126 -293 286 -287 287 -289 290 -235 269 30 -12 78 -34 105
-50z m-515 -350 l-23 -32 -188 188 c-104 104 -189 192 -189 197 0 4 15 14 33
22 l32 14 179 -179 179 -178 -23 -32z m-1242 -8 l-52 -3 -108 108 -108 108 0
55 0 55 160 -160 160 -160 -52 -3z m978 116 l201 -203 -4 -42 c-3 -24 -8 -43
-12 -43 -3 0 -107 101 -230 224 l-225 225 25 20 c13 11 29 20 34 21 6 0 101
-91 211 -202z m-138 -69 c103 -99 188 -184 190 -187 1 -4 -22 -5 -52 -4 l-54
4 -164 158 -163 158 24 26 c14 14 26 26 29 26 2 0 88 -81 190 -181z m-998 -42
c0 -4 -24 -7 -52 -5 l-53 3 -3 60 -3 60 56 -55 c30 -30 55 -58 55 -63z m854
-16 l129 -129 -49 -4 -49 -5 -109 107 -109 108 19 26 c11 14 24 26 29 26 6 0
68 -58 139 -129z m940 -110 l170 -170 -79 24 c-72 23 -86 31 -150 95 -59 58
-73 79 -87 128 -9 32 -20 66 -24 75 -3 9 -4 17 -2 17 2 0 79 -76 172 -169z
m-764 -287 c25 -27 62 -62 83 -78 l39 -28 -23 -24 c-12 -13 -27 -24 -33 -24
-17 0 -496 483 -496 500 0 9 7 26 16 39 l17 24 176 -180 c97 -99 196 -202 221
-229z m-485 -329 c402 -398 590 -591 570 -584 -16 5 -61 26 -99 45 -61 31
-125 90 -597 556 -452 445 -529 525 -529 550 0 24 4 28 28 28 22 0 129 -102
627 -595z m235 -26 l625 -621 -60 7 -60 7 -465 458 c-256 252 -535 529 -620
614 l-155 156 55 -1 55 0 625 -620z m-93 299 l323 -323 -12 -37 c-6 -21 -14
-38 -17 -38 -3 0 -168 162 -366 360 l-360 360 55 0 55 0 322 -322z m127 79
l249 -242 -12 -38 c-7 -21 -16 -37 -21 -35 -4 2 -135 128 -291 280 l-284 278
55 0 55 0 249 -243z m885 141 c-25 -16 -70 -36 -67 -31 3 5 11 23 18 41 14 32
14 32 34 12 11 -11 18 -21 15 -22z m-193 -14 c9 -34 -1 -90 -21 -121 -14 -20
-19 -22 -32 -12 -19 16 -14 118 6 143 20 24 40 19 47 -10z m-1193 -452 l208
-208 -3 -52 -3 -52 -312 312 -313 312 0 49 0 49 108 -100 c59 -55 201 -195
315 -310z m1024 347 c64 -31 82 -79 31 -79 -32 0 -107 39 -119 61 -22 43 19
51 88 18z m338 -59 c0 -35 -125 -66 -153 -38 -18 18 -15 26 16 43 36 20 137
16 137 -5z m544 -124 l143 -144 -12 -36 c-6 -20 -15 -36 -18 -36 -4 0 -78 71
-166 159 l-158 158 29 21 c15 12 30 22 33 22 3 0 70 -65 149 -144z m-811 25
c5 -30 -66 -101 -102 -101 -31 0 -33 14 -6 58 20 33 77 74 95 69 6 -2 11 -14
13 -26z m726 -142 l175 -171 -16 -34 c-10 -19 -20 -33 -25 -32 -4 2 -91 86
-192 187 l-185 184 22 18 c12 10 28 18 34 19 7 0 91 -77 187 -171z m-1616
-515 l-3 -49 -312 310 -313 310 0 55 0 55 316 -316 315 -315 -3 -50z m1017
628 c33 -51 43 -100 21 -108 -33 -13 -86 59 -86 116 0 44 33 40 65 -8z m675
-452 l-23 -32 -224 223 -223 224 42 11 43 11 204 -202 204 -203 -23 -32z
m-1877 -140 c103 -102 187 -193 187 -202 0 -14 -8 -18 -36 -18 -33 0 -54 18
-315 273 l-279 272 0 55 0 55 128 -125 c70 -69 211 -208 315 -310z m1783 31
l-24 -24 -39 31 c-21 17 -93 86 -159 154 l-122 123 -4 58 -5 59 189 -189 188
-188 -24 -24z m-683 311 c16 -23 52 -61 80 -85 28 -23 129 -118 224 -212 l173
-169 -36 -19 -37 -19 -248 248 -248 247 22 28 c12 15 27 27 32 25 6 -1 23 -21
38 -44z m86 -286 l244 -244 -42 -13 -42 -13 -240 240 c-131 131 -239 242 -239
245 0 5 45 23 70 28 3 1 115 -109 249 -243z m59 -287 c-61 -18 -63 -16 -304
217 -129 125 -232 230 -228 233 3 3 20 11 37 17 l32 11 243 -236 c220 -213
242 -236 220 -242z m-1290 13 l-52 -3 -173 173 -173 173 0 55 0 55 225 -225
225 -225 -52 -3z m1722 158 c-14 -11 -30 -20 -35 -20 -6 0 -56 46 -111 103
l-101 102 5 49 4 49 132 -132 131 -132 -25 -19z m-1931 -158 l-52 -3 -69 68
c-68 67 -68 68 -68 123 l0 55 120 -120 120 -120 -51 -3z m-164 18 c18 -19 17
-20 -3 -20 -15 0 -22 6 -22 20 0 11 2 20 3 20 2 0 12 -9 22 -20z"/>
</g>
</svg>
